<?xml version="1.0" encoding="utf-8"?>
<!-- Generator: Adobe Illustrator 18.0.0, SVG Export Plug-In . SVG Version: 6.00 Build 0)  -->
<!DOCTYPE svg PUBLIC "-//W3C//DTD SVG 1.1//EN" "http://www.w3.org/Graphics/SVG/1.1/DTD/svg11.dtd">
<svg version="1.1" id="Layer_1" xmlns="http://www.w3.org/2000/svg" xmlns:xlink="http://www.w3.org/1999/xlink" x="0px" y="0px"
	 viewBox="0 604.2 711.9 168.7" enable-background="new 0 604.2 711.9 168.7" xml:space="preserve">
<g>
	<path fill="#FFFFFF" d="M78.9,660.3l41.1,23.6c7.1,3.9,7.1,14.2,0,18.1l-41.1,23.9c-7.1,3.9-15.7-1.1-15.7-9v-47.5
		C63.2,661.4,71.8,656.4,78.9,660.3z"/>
	<g>
		<path fill="#ED2A26" d="M183.9,629.3c0,7.5-6.1,13.5-13.5,13.5c-7.5,0-13.5-6.1-13.5-13.5c0-7.5,6.1-13.5,13.5-13.5
			C177.9,615.8,183.9,621.9,183.9,629.3z"/>
		<path fill="#ED2A26" d="M151.5,611.2c-0.1,3.7-3.2,6.6-6.9,6.5c-3.7-0.1-6.6-3.2-6.4-6.9c0.1-3.7,3.2-6.6,6.9-6.5
			C148.8,604.4,151.7,607.5,151.5,611.2z"/>
		<path fill="#ED2A26" d="M15.7,751.5c-0.2,4.3-3.8,7.7-8.1,7.5c-4.3-0.2-7.7-3.8-7.5-8.1c0.2-4.3,3.8-7.7,8.1-7.5
			C12.5,743.6,15.8,747.2,15.7,751.5z"/>
	</g>
	<g>
		<path fill="#DA1F27" d="M123.1,674.5c0,0.3,0,0.5,0,0.8c19.1,10.5,33.7,28.6,39.2,50.6c5.5-12,8-25.6,6.8-39.7
			c-3.7-43-40.9-75.1-83.7-72.9C106.2,626.2,120.9,648.3,123.1,674.5z"/>
		<path fill="#ED2A26" d="M10,699.9c0.4,4.3,1.1,8.5,2.1,12.6c11.5-25.5,36.1-44.1,65.9-46.7c16.3-1.4,31.8,2.2,45.1,9.5
			c0-0.3,0-0.5,0-0.8c-2.3-26.2-16.9-48.4-37.7-61.2c-0.9,0-1.8,0.1-2.7,0.2C38.8,617.3,6.2,656,10,699.9z"/>
		<path fill="#AF1F24" d="M123.2,675.3c3.3,43.6-29.1,81.9-72.8,85.6c-0.9,0.1-1.8,0.1-2.7,0.2c14.1,8.7,30.9,13.1,48.7,11.6
			c29.8-2.6,54.4-21.2,65.9-46.7C156.8,703.9,142.3,685.8,123.2,675.3z"/>
		<path fill="#C72127" d="M123.2,675.3c-13.3-7.3-28.9-10.9-45.1-9.5c-29.8,2.6-54.4,21.2-65.9,46.7c5.2,20.7,18.2,37.9,35.6,48.6
			c0.9,0,1.8-0.1,2.7-0.2C94.1,757.2,126.5,718.9,123.2,675.3z"/>
	</g>
	<path fill="#FFFFFF" d="M77.2,657l46.7,26.9c8,4.5,8,16.1,0,20.5l-46.7,27.1c-8,4.5-17.8-1.2-17.8-10.3v-54
		C59.4,658.3,69.2,652.6,77.2,657z"/>
</g>
</svg>
